<svg xmlns="http://www.w3.org/2000/svg" width="1200" height="1600" viewBox="0 0 1200 1600">
<rect width="100%" height="100%" fill="#ffffff"/>
<text x="60" y="64" font-family="sans-serif" font-size="34" font-weight="700">Quaternius Human — rigged — FRONT</text>
<text x="60" y="104" font-family="sans-serif" font-size="19">Exact rest-pose proportions from model.glb · front projection</text>
<rect x="471.05" y="120.00" width="257.91" height="1360.00" fill="none" stroke="#777" stroke-width="2" stroke-dasharray="8 8"/>
<line x1="571.05" y1="826.21" x2="578.79" y2="749.29" stroke="#111" stroke-width="5" stroke-linecap="round"/><line x1="571.05" y1="826.21" x2="625.29" y2="870.59" stroke="#111" stroke-width="5" stroke-linecap="round"/><line x1="571.05" y1="826.21" x2="534.47" y2="870.56" stroke="#111" stroke-width="5" stroke-linecap="round"/><line x1="578.79" y1="749.29" x2="582.84" y2="658.73" stroke="#111" stroke-width="5" stroke-linecap="round"/><line x1="582.84" y1="658.73" x2="578.62" y2="556.24" stroke="#111" stroke-width="5" stroke-linecap="round"/><line x1="578.62" y1="556.24" x2="567.43" y2="446.29" stroke="#111" stroke-width="5" stroke-linecap="round"/><line x1="578.62" y1="556.24" x2="615.98" y2="460.60" stroke="#111" stroke-width="5" stroke-linecap="round"/><line x1="578.62" y1="556.24" x2="522.25" y2="458.72" stroke="#111" stroke-width="5" stroke-linecap="round"/><line x1="567.43" y1="446.29" x2="559.60" y2="393.58" stroke="#111" stroke-width="5" stroke-linecap="round"/><line x1="559.60" y1="393.58" x2="545.43" y2="189.77" stroke="#111" stroke-width="5" stroke-linecap="round"/><line x1="615.98" y1="460.60" x2="712.49" y2="494.43" stroke="#111" stroke-width="5" stroke-linecap="round"/><line x1="712.49" y1="494.43" x2="792.30" y2="693.88" stroke="#111" stroke-width="5" stroke-linecap="round"/><line x1="792.30" y1="693.88" x2="791.27" y2="863.41" stroke="#111" stroke-width="5" stroke-linecap="round"/><line x1="791.27" y1="863.41" x2="776.63" y2="865.54" stroke="#111" stroke-width="5" stroke-linecap="round"/><line x1="791.27" y1="863.41" x2="803.18" y2="897.78" stroke="#111" stroke-width="5" stroke-linecap="round"/><line x1="776.63" y1="865.54" x2="765.00" y2="887.96" stroke="#111" stroke-width="5" stroke-linecap="round"/><line x1="765.00" y1="887.96" x2="755.05" y2="907.30" stroke="#111" stroke-width="5" stroke-linecap="round"/><line x1="755.05" y1="907.30" x2="746.69" y2="923.55" stroke="#111" stroke-width="5" stroke-linecap="round"/><line x1="803.18" y1="897.78" x2="805.32" y2="922.64" stroke="#111" stroke-width="5" stroke-linecap="round"/><line x1="805.32" y1="922.64" x2="801.52" y2="945.22" stroke="#111" stroke-width="5" stroke-linecap="round"/><line x1="801.52" y1="945.22" x2="799.29" y2="958.52" stroke="#111" stroke-width="5" stroke-linecap="round"/><line x1="522.25" y1="458.72" x2="432.55" y2="496.45" stroke="#111" stroke-width="5" stroke-linecap="round"/><line x1="432.55" y1="496.45" x2="398.50" y2="659.43" stroke="#111" stroke-width="5" stroke-linecap="round"/><line x1="398.50" y1="659.43" x2="311.12" y2="861.75" stroke="#111" stroke-width="5" stroke-linecap="round"/><line x1="311.12" y1="861.75" x2="297.17" y2="876.19" stroke="#111" stroke-width="5" stroke-linecap="round"/><line x1="311.12" y1="861.75" x2="295.71" y2="919.53" stroke="#111" stroke-width="5" stroke-linecap="round"/><line x1="297.17" y1="876.19" x2="298.27" y2="897.36" stroke="#111" stroke-width="5" stroke-linecap="round"/><line x1="298.27" y1="897.36" x2="301.71" y2="920.82" stroke="#111" stroke-width="5" stroke-linecap="round"/><line x1="301.71" y1="920.82" x2="304.61" y2="940.51" stroke="#111" stroke-width="5" stroke-linecap="round"/><line x1="295.71" y1="919.53" x2="288.77" y2="958.21" stroke="#111" stroke-width="5" stroke-linecap="round"/><line x1="288.77" y1="958.21" x2="292.08" y2="986.22" stroke="#111" stroke-width="5" stroke-linecap="round"/><line x1="292.08" y1="986.22" x2="294.14" y2="1003.63" stroke="#111" stroke-width="5" stroke-linecap="round"/><line x1="625.29" y1="870.59" x2="580.46" y2="1128.87" stroke="#111" stroke-width="5" stroke-linecap="round"/><line x1="580.46" y1="1128.87" x2="638.98" y2="1427.97" stroke="#111" stroke-width="5" stroke-linecap="round"/><line x1="638.98" y1="1427.97" x2="552.61" y2="1475.48" stroke="#111" stroke-width="5" stroke-linecap="round"/><line x1="552.61" y1="1475.48" x2="511.38" y2="1473.59" stroke="#111" stroke-width="5" stroke-linecap="round"/><line x1="534.47" y1="870.56" x2="456.87" y2="1162.10" stroke="#111" stroke-width="5" stroke-linecap="round"/><line x1="456.87" y1="1162.10" x2="547.48" y2="1428.17" stroke="#111" stroke-width="5" stroke-linecap="round"/><line x1="547.48" y1="1428.17" x2="437.65" y2="1475.95" stroke="#111" stroke-width="5" stroke-linecap="round"/><line x1="437.65" y1="1475.95" x2="389.47" y2="1474.56" stroke="#111" stroke-width="5" stroke-linecap="round"/>
<circle cx="571.05" cy="826.21" r="6" fill="#fff" stroke="#111" stroke-width="3"/><circle cx="578.79" cy="749.29" r="6" fill="#fff" stroke="#111" stroke-width="3"/><circle cx="582.84" cy="658.73" r="6" fill="#fff" stroke="#111" stroke-width="3"/><circle cx="578.62" cy="556.24" r="6" fill="#fff" stroke="#111" stroke-width="3"/><circle cx="567.43" cy="446.29" r="6" fill="#fff" stroke="#111" stroke-width="3"/><circle cx="559.60" cy="393.58" r="6" fill="#fff" stroke="#111" stroke-width="3"/><circle cx="545.43" cy="189.77" r="6" fill="#fff" stroke="#111" stroke-width="3"/><circle cx="615.98" cy="460.60" r="6" fill="#fff" stroke="#111" stroke-width="3"/><circle cx="712.49" cy="494.43" r="6" fill="#fff" stroke="#111" stroke-width="3"/><circle cx="792.30" cy="693.88" r="6" fill="#fff" stroke="#111" stroke-width="3"/><circle cx="791.27" cy="863.41" r="6" fill="#fff" stroke="#111" stroke-width="3"/><circle cx="776.63" cy="865.54" r="6" fill="#fff" stroke="#111" stroke-width="3"/><circle cx="765.00" cy="887.96" r="6" fill="#fff" stroke="#111" stroke-width="3"/><circle cx="755.05" cy="907.30" r="6" fill="#fff" stroke="#111" stroke-width="3"/><circle cx="746.69" cy="923.55" r="6" fill="#fff" stroke="#111" stroke-width="3"/><circle cx="803.18" cy="897.78" r="6" fill="#fff" stroke="#111" stroke-width="3"/><circle cx="805.32" cy="922.64" r="6" fill="#fff" stroke="#111" stroke-width="3"/><circle cx="801.52" cy="945.22" r="6" fill="#fff" stroke="#111" stroke-width="3"/><circle cx="799.29" cy="958.52" r="6" fill="#fff" stroke="#111" stroke-width="3"/><circle cx="522.25" cy="458.72" r="6" fill="#fff" stroke="#111" stroke-width="3"/><circle cx="432.55" cy="496.45" r="6" fill="#fff" stroke="#111" stroke-width="3"/><circle cx="398.50" cy="659.43" r="6" fill="#fff" stroke="#111" stroke-width="3"/><circle cx="311.12" cy="861.75" r="6" fill="#fff" stroke="#111" stroke-width="3"/><circle cx="297.17" cy="876.19" r="6" fill="#fff" stroke="#111" stroke-width="3"/><circle cx="298.27" cy="897.36" r="6" fill="#fff" stroke="#111" stroke-width="3"/><circle cx="301.71" cy="920.82" r="6" fill="#fff" stroke="#111" stroke-width="3"/><circle cx="304.61" cy="940.51" r="6" fill="#fff" stroke="#111" stroke-width="3"/><circle cx="295.71" cy="919.53" r="6" fill="#fff" stroke="#111" stroke-width="3"/><circle cx="288.77" cy="958.21" r="6" fill="#fff" stroke="#111" stroke-width="3"/><circle cx="292.08" cy="986.22" r="6" fill="#fff" stroke="#111" stroke-width="3"/><circle cx="294.14" cy="1003.63" r="6" fill="#fff" stroke="#111" stroke-width="3"/><circle cx="625.29" cy="870.59" r="6" fill="#fff" stroke="#111" stroke-width="3"/><circle cx="580.46" cy="1128.87" r="6" fill="#fff" stroke="#111" stroke-width="3"/><circle cx="638.98" cy="1427.97" r="6" fill="#fff" stroke="#111" stroke-width="3"/><circle cx="552.61" cy="1475.48" r="6" fill="#fff" stroke="#111" stroke-width="3"/><circle cx="511.38" cy="1473.59" r="6" fill="#fff" stroke="#111" stroke-width="3"/><circle cx="534.47" cy="870.56" r="6" fill="#fff" stroke="#111" stroke-width="3"/><circle cx="456.87" cy="1162.10" r="6" fill="#fff" stroke="#111" stroke-width="3"/><circle cx="547.48" cy="1428.17" r="6" fill="#fff" stroke="#111" stroke-width="3"/><circle cx="437.65" cy="1475.95" r="6" fill="#fff" stroke="#111" stroke-width="3"/><circle cx="389.47" cy="1474.56" r="6" fill="#fff" stroke="#111" stroke-width="3"/>
<line x1="70" y1="120.00" x2="70" y2="1480.00" stroke="#111" stroke-width="2"/>
<line x1="55" y1="120.00" x2="85" y2="120.00" stroke="#111" stroke-width="2"/>
<line x1="55" y1="1480.00" x2="85" y2="1480.00" stroke="#111" stroke-width="2"/>
<text x="92" y="800.00" font-family="sans-serif" font-size="22">height 1.750 m default</text>
<line x1="471.05" y1="1530" x2="728.95" y2="1530" stroke="#111" stroke-width="2"/>
<line x1="471.05" y1="1515" x2="471.05" y2="1545" stroke="#111" stroke-width="2"/>
<line x1="728.95" y1="1515" x2="728.95" y2="1545" stroke="#111" stroke-width="2"/>
<text x="600.00" y="1572" text-anchor="middle" font-family="sans-serif" font-size="22">X / width: 0.332 m default</text>
</svg>