<svg xmlns="http://www.w3.org/2000/svg" width="1200" height="1600" viewBox="0 0 1200 1600">
<rect width="100%" height="100%" fill="#ffffff"/>
<text x="60" y="64" font-family="sans-serif" font-size="34" font-weight="700">Kenney Mini Character Female E — SIDE</text>
<text x="60" y="104" font-family="sans-serif" font-size="19">Exact rest-pose proportions from model.glb · side projection</text>
<rect x="120.00" y="147.50" width="960.00" height="1305.00" fill="none" stroke="#777" stroke-width="2" stroke-dasharray="8 8"/>
<line x1="701.80" y1="1452.50" x2="649.44" y2="1131.48" stroke="#111" stroke-width="5" stroke-linecap="round"/><line x1="701.80" y1="1452.50" x2="649.44" y2="1131.48" stroke="#111" stroke-width="5" stroke-linecap="round"/><line x1="701.80" y1="1452.50" x2="649.44" y2="1131.48" stroke="#111" stroke-width="5" stroke-linecap="round"/><line x1="649.44" y1="1131.48" x2="670.38" y2="928.39" stroke="#111" stroke-width="5" stroke-linecap="round"/><line x1="649.44" y1="1131.48" x2="670.38" y2="928.39" stroke="#111" stroke-width="5" stroke-linecap="round"/><line x1="649.44" y1="1131.48" x2="697.50" y2="827.30" stroke="#111" stroke-width="5" stroke-linecap="round"/>
<circle cx="701.80" cy="1452.50" r="6" fill="#fff" stroke="#111" stroke-width="3"/><circle cx="649.44" cy="1131.48" r="6" fill="#fff" stroke="#111" stroke-width="3"/><circle cx="649.44" cy="1131.48" r="6" fill="#fff" stroke="#111" stroke-width="3"/><circle cx="649.44" cy="1131.48" r="6" fill="#fff" stroke="#111" stroke-width="3"/><circle cx="670.38" cy="928.39" r="6" fill="#fff" stroke="#111" stroke-width="3"/><circle cx="670.38" cy="928.39" r="6" fill="#fff" stroke="#111" stroke-width="3"/><circle cx="697.50" cy="827.30" r="6" fill="#fff" stroke="#111" stroke-width="3"/>
<line x1="70" y1="147.50" x2="70" y2="1452.50" stroke="#111" stroke-width="2"/>
<line x1="55" y1="147.50" x2="85" y2="147.50" stroke="#111" stroke-width="2"/>
<line x1="55" y1="1452.50" x2="85" y2="1452.50" stroke="#111" stroke-width="2"/>
<text x="92" y="800.00" font-family="sans-serif" font-size="22">height 1.750 m default</text>
<line x1="120.00" y1="1530" x2="1080.00" y2="1530" stroke="#111" stroke-width="2"/>
<line x1="120.00" y1="1515" x2="120.00" y2="1545" stroke="#111" stroke-width="2"/>
<line x1="1080.00" y1="1515" x2="1080.00" y2="1545" stroke="#111" stroke-width="2"/>
<text x="600.00" y="1572" text-anchor="middle" font-family="sans-serif" font-size="22">Z / visual side depth: 1.287 m default</text>
</svg>